# xmcd
#
# Track frame offsets: 
#        150
#        13656
#        28206
#        42037
#        54368
#        66191
#        80366
#        93853
#        107422
#        119610
#        131968
#        146506
#        158973
#        171064
#        184578
#        196861
#        211230
#        227858
#        246678
#
# Disc length: 3530 seconds
#
# Revision: 1
# Processed by: cddbd v1.5.2PL0 Copyright (c) Steve Scherf et al.
# Submitted via: ExactAudioCopy v0.95b2
#
DISCID=080dc813
DTITLE=Django Reinhardt - Jazz Ballads 7 [CD2]
DYEAR=2004
DGENRE=Jazz
TTITLE0=In A Sentimental Mood
TTITLE1=Georgia On My Mind
TTITLE2=In The Still Of The Night
TTITLE3=Sweet Chorus
TTITLE4=Tears
TTITLE5=Solitude
TTITLE6=Parfum
TTITLE7=My Serenade
TTITLE8=Night And Day
TTITLE9=Souveniers
TTITLE10=Nocturne
TTITLE11=Please Be Kind
TTITLE12=Improvisation No. 2
TTITLE13=Crepuscule
TTITLE14=Si Tu Savais
TTITLE15=Lover Man
TTITLE16=I Surrender Dear
TTITLE17=Stormy Weather
TTITLE18=Sophisticated Lady
EXTD=
EXTT0=
EXTT1=
EXTT2=
EXTT3=
EXTT4=
EXTT5=
EXTT6=
EXTT7=
EXTT8=
EXTT9=
EXTT10=
EXTT11=
EXTT12=
EXTT13=
EXTT14=
EXTT15=
EXTT16=
EXTT17=
EXTT18=
PLAYORDER=
